<svg id="Layer_1" data-name="Layer 1" xmlns="http://www.w3.org/2000/svg" viewBox="0 0 30.41 42.39"><defs><style>.cls-1{fill:#222337;}.cls-2{fill:#d6b953;}</style></defs><path class="cls-1" d="M708.9,283.56c-5.18-8.88-10.2-16.56-14.24-24.72-2.74-5.51-.14-11.49,5.15-15.12,5.68-3.89,14.58-3.26,19.84,1.41,4.6,4.09,5.61,9.51,2.63,15.28C719,266.69,710.55,281.36,708.9,283.56ZM716.2,254c0-3.68-3.32-6.48-7.57-6.4-4,.07-7.06,2.86-7.08,6.4,0,3.71,3.31,6.52,7.57,6.39S716.21,257.56,716.2,254Z" transform="translate(-693.56 -241.17)"/><path class="cls-2" d="M716.2,254c0,3.58-3,6.26-7.08,6.39s-7.59-2.68-7.57-6.39c0-3.54,3.11-6.33,7.08-6.4C712.88,247.5,716.18,250.3,716.2,254Z" transform="translate(-693.56 -241.17)"/></svg>