<svg id="Layer_1" data-name="Layer 1" xmlns="http://www.w3.org/2000/svg" viewBox="0 0 466.63 463.24"><defs><style>.cls-1{fill:#222337;}</style></defs><path class="cls-1" d="M389.34,436.58c-9.09-4.26-17-9.7-25.63-11.55-9.6-2-19.93-2.79-29.53,2.87-5.24,3.09-11.64,4.14-17.32,6.57-12.73,5.44-26.19,10.33-33.32,23.32-3.2,5.81-7.75,11.37-6.91,19.16.58,5.31-1.95,7.08-7.33,7.09-16.66,0-33.33,0-50,.07-3.48,0-5.09-.83-5.11-4.73,0-8.37-4.33-15-8.69-21.94a42.55,42.55,0,0,0-15.85-15c-5.71-3.14-11.8-5.58-17.75-8.27a78.61,78.61,0,0,0-8-3.35c-7.26-2.33-14.48-4.87-21.89-6.54a34.67,34.67,0,0,0-12.44,0c-3.6.53-7,2.25-10.49,3.5-.61.22-1.07.8-1.66,1.08-5.07,2.42-10.16,4.81-16.78,7.93-4.5-4.35-10-9.68-15.46-15-4.15-4-8.36-7.93-12.49-11.94C69,406.32,65,403,62,399c-1.21-1.65-1.21-6.21.1-7.39,8.91-8.06,8.37-19.69,12-29.7a2.51,2.51,0,0,0,.12-1.48c-2.33-7.83-4.56-15.69-7.1-23.45a153,153,0,0,0-6.06-16,124,124,0,0,0-8.5-15.88,45.45,45.45,0,0,0-9.1-10.57c-4.56-3.72-9.06-7.7-15.48-8.64-4.49-.66-8.85-2.54-13.06-4.36a5.5,5.5,0,0,1-2.53-4.18c-.18-16.83-.07-33.66-.16-50.49,0-3,1.13-3.77,4-4.29,7.29-1.3,14-4.12,20.66-7.65,7.59-4,12.54-9.92,17.16-16.48a52.12,52.12,0,0,0,5.62-10.32c2.47-6,3.52-12.89,6.91-18.3,4.62-7.38,4.5-15.75,7.11-23.48.11-.31.38-.67.31-.93-2.1-7.62-3.91-15.34-6.5-22.79-1.29-3.68-4.41-6.67-6-10.28-2.08-4.61,1.44-7.68,4.22-10.52,4.14-4.21,8.69-8,12.93-12.13,4-3.86,7.76-7.9,11.62-11.88,2.22-2.29,4.18-4.92,6.68-6.86,4-3.14,8-1.71,11.8,1,7.27,5.26,15.23,8.83,24.35,8.81,5.47,0,11.06,0,16.35-1.13s10.12-3.62,15.1-5.67c6.92-2.84,14-5.43,20.6-8.87,7.22-3.75,14.17-8.16,18.75-15.26,2.64-4.08,5.63-8,7.51-12.44a42.47,42.47,0,0,0,2.74-12.43c.3-3,1.35-4.07,4.25-4.06,17.33.06,34.66,0,52,.05,4.27,0,6.52,2.34,6.41,6.58-.29,12,6.64,20.29,14.25,28.13,5.06,5.21,11.22,8.43,18.37,10.75,9.57,3.1,18.18,9.26,27.8,12a56,56,0,0,0,24.48,1.49c7.9-1.39,15.66-5.43,22.61-9.72,5.45-3.36,7.81.07,10.62,2.67,6.3,5.8,12.31,11.92,18.31,18,4.35,4.43,8.31,9.25,12.81,13.53,3.95,3.76,4.28,5.07.72,9.29a10.07,10.07,0,0,0-1.6,2.49c-2.75,6.45-5.95,12.77-8,19.44-1.32,4.32-2.06,9.44-1,13.72,1.71,7.08,5,13.77,7.71,20.61,1.74,4.42,3.52,8.84,5.38,13.22,1.7,4,3.74,7.87,5.28,11.93,3.31,8.75,9.64,14.18,17.54,19a70.6,70.6,0,0,0,23.32,9c1.4.28,3.28,3,3.3,4.56.24,16.5.12,33,.18,49.49,0,2.65-1,3.65-3.64,4.29-6,1.47-12.44,2.52-17.73,5.47a75,75,0,0,0-17.4,13.62,43.86,43.86,0,0,0-10.89,20.56c-1.35,5.67-5.81,10.56-7.5,16.21-3.53,11.78-9.36,23.1-3.11,36.43,3.05,6.48,5.38,13.14,9.74,19,1.74,2.34,2.12,4.85-1.53,7.42-4.63,3.27-8.13,8.14-12.15,12.28-3.69,3.81-7.34,7.65-11.14,11.34-2.4,2.34-5.07,4.41-7.57,6.66S391,435,389.34,436.58ZM84.75,253.69c-1.34,33.74,10.29,64.78,30.17,92.9,19,26.92,45,45.37,75.48,57.24a139.09,139.09,0,0,0,51.71,9.31c57.84-.67,104.34-24.56,137.07-72.91,16.67-24.62,26.37-52.37,26.78-81.93.82-57.51-22.75-104-69.3-137.88-26.86-19.54-58.08-28.91-91-28.71-50,.3-92.31,19.93-124.38,58.56C97,179.57,83.56,213.54,84.75,253.69Z" transform="translate(-12.26 -20.88)"/><path class="cls-1" d="M399.26,254.28c-1.33,32.12-10.71,63.29-31.58,90-32.22,41.19-74.39,62.35-127.42,61-25-.64-48.68-6.15-70-18.82-53.72-32-80.48-79.67-78.79-142.31.77-28.75,10.33-55.35,27.15-78.55,32.89-45.37,77.25-67.92,134-65.93,30.21,1.06,58,10,81.51,27.45Q396.58,173.24,399.26,254.28Zm-271.88-2.17c.47,8.31.41,16.66,1.59,24.85.9,6.23,3.1,12.33,5.23,18.32a76,76,0,0,0,5.9,12.27,124.89,124.89,0,0,0,7.53,11.18c4.12,5.63,7.68,11.92,12.74,16.54,9.86,9,19.85,17.76,32.66,23.07,8.08,3.35,15.89,7.2,24.49,9,2.57.54,5.23.65,7.81,1.12,5.34,1,10.73,3.19,16,2.85,10.8-.71,21.52-2.72,32.26-4.28a33.88,33.88,0,0,0,8.19-1.78A131.08,131.08,0,0,0,298,357.5c8.47-5,17.47-9.64,24.67-16.18,8-7.31,15.55-15.35,21.46-24.93,5.7-9.25,10.62-18.65,13.84-29,.53-1.71,1.39-3.45,1.92-5,2.44-7.11,2.49-16.4,3.23-24.45a99,99,0,0,0-5.58-42.28c-2.35-6.66-6.45-12.71-8.8-19.37-3.39-9.56-10.05-16.83-16.61-23.83-7.78-8.3-15.94-16.58-26.72-21.36-3.21-1.42-6.22-3.28-9.43-4.69-6.94-3.05-13.83-6.26-21-8.74-3.48-1.22-7.5-.79-11.24-1.4-5.35-.87-10.73-3.17-16-2.8a218.51,218.51,0,0,0-33.63,4.73c-7.43,1.71-14.47,5.47-21.38,8.92s-13.87,7-19.92,11.68c-6.3,4.86-11.58,11.07-17.22,16.78a50.88,50.88,0,0,0-5.28,6.25,117.1,117.1,0,0,0-7.52,11.42c-2.18,4-3,8.84-5.78,12.24-5.38,6.61-5.87,14.83-7.92,22.3C127.06,235.51,127.85,244,127.38,252.11Z" transform="translate(-12.26 -20.88)"/></svg>